<svg xmlns="http://www.w3.org/2000/svg" viewBox="0 0 32 32" fill="none">
  <path d="M4 6.5C4 5.11929 5.11929 4 6.5 4H25.5C26.8807 4 28 5.11929 28 6.5V14.3419C28 21.9318 22.0726 27.8868 16.1954 29.9116C16.0684 29.9554 15.9316 29.9554 15.8046 29.9116C9.92743 27.8868 4 21.9318 4 14.3419V6.5Z" fill="#175DDC"/>
  <path d="M14.1538 21.5H17.8462C18.2054 21.5 18.5 21.2054 18.5 20.8462V15.6538C18.5 15.2946 18.2054 15 17.8462 15H17.5V13.5C17.5 12.6716 16.8284 12 16 12C15.1716 12 14.5 12.6716 14.5 13.5V15H14.1538C13.7946 15 13.5 15.2946 13.5 15.6538V20.8462C13.5 21.2054 13.7946 21.5 14.1538 21.5ZM15.5 13.5C15.5 13.2239 15.7239 13 16 13C16.2761 13 16.5 13.2239 16.5 13.5V15H15.5V13.5Z" fill="white"/>
</svg>
